
<svg id="Layer_2" xmlns="http://www.w3.org/2000/svg" viewBox="0 0 20.93 21.13">
	<defs>
		<style>
			.cls-1 {
				fill: #98ff5b;
				fill-rule: evenodd;
			}
		</style>
	</defs>
	<g id="Layer_1-2" data-name="Layer_1">
		<path
			class="cls-1"
			d="M2.2,10.56c3.89-.39,6.92-3.66,6.92-7.65,0-.25.01.49.03.74.34,3.61,3.35,6.34,6.97,6.34h3.48c.41,0,.77-.17,1.03-.49.26-.32.35-.7.27-1.11C19.9,3.59,15.65,0,10.56,0,4.73,0,0,4.73,0,10.56s4.73,10.56,10.56,10.56c5.09,0,9.33-3.6,10.34-8.39.08-.4,0-.79-.27-1.11-.26-.32-.62-.49-1.03-.49h-3.48c-3.62,0-6.63,2.73-6.97,6.34-.02.21-.03.78-.03.79v-.05c0-3.99-3.03-7.27-6.92-7.65h0Z"
		/>
	</g>
</svg>
